<svg width="96" height="40" viewBox="0 0 96 40" fill="none" xmlns="http://www.w3.org/2000/svg">
<path d="M7.03521 33.0536C4.21281 32.9512 2.9256 32.644 2.9256 31.7816C2.9256 30.9192 3.9488 30.568 6.50881 30.5384C9.06801 30.524 10.9392 31.0216 12.548 31.9424L13.2496 29.8512C11.3632 28.9304 9.25762 28.4328 6.55201 28.4472C2.58881 28.4624 0.526402 29.6312 0.526402 31.8696C0.526402 33.9312 2.8512 34.984 7.54561 35.1888C10.3096 35.3064 11.4208 35.5832 11.4208 36.3736C11.4208 37.4264 9.69521 37.88 6.81441 37.8944C4.60641 37.9096 2.588 37.3832 0.862399 36.3736L0 38.3768C1.7984 39.3856 4.07921 40 6.52161 40C11.4208 40 13.98 38.7576 13.98 36.3736C13.98 34.2096 11.5968 33.2144 7.03361 33.0536H7.03521Z" fill="#F2ECDC"/>
<path d="M58.479 29.2656H51.8838V37.4225L51.0534 37.7705L50.615 37.9705L50.5534 37.7457L47.9046 25.7496L51.8318 18.1424L51.3446 9.25361L45.6214 0L45.439 1.644L40.2638 2.4352L40.0206 4.07921L38.255 6.14881L40.6294 8.94961L42.3342 8.04481L44.0998 9.55841L41.7254 11.6888L41.147 13.7584L35.2718 18.6288L26.995 36.5009C26.863 36.6081 26.4614 36.8737 25.5486 37.0945C24.7958 37.2265 23.9926 37.3001 23.1934 37.3001C19.9846 37.3001 17.8454 35.8841 17.8454 33.7449C17.8454 31.6056 19.9846 30.2048 23.1934 30.2048C24.563 30.2048 26.1934 30.6792 27.5542 31.4272L28.6214 29.2208C27.2302 28.396 25.171 27.8696 23.163 27.8696C18.3278 27.8696 15.1038 30.22 15.1038 33.7449C15.1038 37.2697 18.3278 39.6209 23.163 39.6209C24.8022 39.6209 26.4534 39.3521 27.7438 38.9081C27.7438 38.9081 27.7478 38.9073 27.7542 38.9049C27.999 38.8201 28.2318 38.7297 28.4478 38.6329C29.3702 38.2833 30.9934 37.7137 32.0334 37.6033L36.335 39.9977H43.3486L43.3518 39.9993H45.6646C45.4094 38.8793 44.7022 37.9569 43.651 37.3001L42.5294 37.7697H38.2934C38.2934 37.7697 38.819 36.8553 39.1734 36.2105L39.4846 35.6065C39.4862 35.6001 39.4878 35.5953 39.4878 35.5921H39.491L43.7974 27.2328L48.8622 39.9977H51.8742L51.8774 39.9993H54.1902C54.1902 39.9993 54.1902 39.9993 54.1902 39.9977H54.4014V36.1233H58.4814C62.883 36.1233 64.6526 35.1433 64.6526 32.6865C64.6526 30.2296 62.883 29.264 58.4814 29.264L58.479 29.2656ZM58.9174 34.2969H54.4422V31.0792H58.9174C61.023 31.0792 61.871 31.532 61.871 32.688C61.871 33.8441 61.023 34.2969 58.9174 34.2969Z" fill="#F2ECDC"/>
<path d="M69.2057 35.5392H77.2193V33.492H69.2057V31.3136H79.6905V29.2656H66.6609V40H79.8081V37.952H69.2057V35.5392Z" fill="#F2ECDC"/>
<path d="M88.3127 33.0536C85.4903 32.9512 84.2031 32.644 84.2031 31.7816C84.2031 30.9192 85.2263 30.568 87.7863 30.5384C90.3455 30.524 92.2167 31.0216 93.8255 31.9424L94.5271 29.8512C92.6407 28.9304 90.5351 28.4328 87.8295 28.4472C83.8663 28.4624 81.8047 29.6312 81.8047 31.8696C81.8047 33.9312 84.1295 34.984 88.8239 35.1888C91.5879 35.3064 92.6991 35.5832 92.6991 36.3736C92.6991 37.4264 90.9735 37.88 88.0927 37.8944C85.8847 37.9096 83.8663 37.3832 82.1407 36.3736L81.2783 38.3768C83.0767 39.3856 85.3575 40 87.7999 40C92.6991 40 95.2583 38.7576 95.2583 36.3736C95.2583 34.2096 92.8751 33.2144 88.3119 33.0536H88.3127Z" fill="#F2ECDC"/>
</svg>
