<svg width="45" height="46" viewBox="0 0 45 46" fill="none" xmlns="http://www.w3.org/2000/svg">
<path d="M42.6799 42.7005L41.3886 43.238L40.8839 43.467L40.813 43.2096L37.7634 29.4771L42.2848 20.7687L41.7239 10.5932L35.1348 0L34.9248 1.88199L28.9666 2.78772L28.6866 4.66971L26.6539 7.0389L29.3875 10.2451L31.3502 9.20936L33.383 10.9421L30.6493 13.3809L29.9834 15.7501L23.2193 21.3255L13.6903 41.7846C13.5383 41.9074 13.076 42.2114 12.0251 42.4642C11.1584 42.6153 10.2336 42.6995 9.31352 42.6995C5.61924 42.6995 3.15639 41.0786 3.15639 38.6297C3.15639 36.1808 5.61924 34.5772 9.31352 34.5772C10.8903 34.5772 12.7674 35.1203 14.3341 35.9766L15.5628 33.4508C13.9611 32.5066 11.5903 31.904 9.27852 31.904C3.71178 31.904 0 34.5946 0 38.6297C0 42.6647 3.71178 45.3563 9.27852 45.3563C11.1657 45.3563 13.0667 45.0486 14.5524 44.5403C14.5524 44.5403 14.557 44.5394 14.5644 44.5367C14.8462 44.4396 15.1142 44.3361 15.3629 44.2253C16.4248 43.8251 18.2936 43.173 19.491 43.0466L24.4434 45.7876H32.5181L32.5218 45.7895H35.1845C34.8907 44.5073 34.0765 43.4514 32.8663 42.6995L31.575 43.2371H26.6981C26.6981 43.2371 27.3032 42.1904 27.7112 41.4522L28.0695 40.7608C28.0714 40.7535 28.0732 40.748 28.0732 40.7443H28.0769L33.0348 31.175L38.8659 45.7876H42.3336L42.3373 45.7895H45C44.7062 44.5073 43.892 43.4514 42.6818 42.6995L42.6799 42.7005Z" fill="#F2ECDC"/>
</svg>
