<svg width="17" height="24" viewBox="0 0 17 24" fill="none" xmlns="http://www.w3.org/2000/svg">
<path d="M3.4375 18.5334H12.8125V16.6584H3.4375V18.5334ZM2.25969 23.2209C1.62823 23.2209 1.09375 23.0022 0.65625 22.5647C0.21875 22.1272 0 21.5927 0 20.9612V11.3459C0 9.65531 0.4575 8.1501 1.3725 6.83031C2.28771 5.51052 3.46479 4.54302 4.90375 3.92781V3.22094C4.90375 2.32365 5.21625 1.5625 5.84125 0.9375C6.46625 0.3125 7.2275 0 8.125 0C9.0225 0 9.78375 0.3125 10.4088 0.9375C11.0338 1.5625 11.3463 2.32365 11.3463 3.22094V3.92781C12.7852 4.54302 13.9623 5.51052 14.8775 6.83031C15.7925 8.1501 16.25 9.65531 16.25 11.3459V20.9612C16.25 21.5927 16.0313 22.1272 15.5938 22.5647C15.1563 23.0022 14.6218 23.2209 13.9903 23.2209H2.25969ZM2.25969 21.3459H13.9903C14.0866 21.3459 14.1747 21.3058 14.2547 21.2256C14.3349 21.1456 14.375 21.0575 14.375 20.9612V11.3459C14.375 9.61677 13.7656 8.14281 12.5469 6.92406C11.3281 5.70531 9.85417 5.09594 8.125 5.09594C6.39583 5.09594 4.92188 5.70531 3.70313 6.92406C2.48438 8.14281 1.875 9.61677 1.875 11.3459V20.9612C1.875 21.0575 1.9151 21.1456 1.99531 21.2256C2.07531 21.3058 2.16344 21.3459 2.25969 21.3459ZM6.77875 3.37C7.01604 3.32042 7.24042 3.28312 7.45188 3.25812C7.66354 3.23333 7.88792 3.22094 8.125 3.22094C8.36208 3.22094 8.58646 3.23333 8.79813 3.25812C9.00958 3.28312 9.23396 3.32042 9.47125 3.37V3.22094C9.47125 2.84281 9.34146 2.52396 9.08188 2.26438C8.82208 2.00458 8.50313 1.87469 8.125 1.87469C7.74688 1.87469 7.42792 2.00458 7.16813 2.26438C6.90854 2.52396 6.77875 2.84281 6.77875 3.22094V3.37ZM2.25969 21.3459H1.875H14.375H2.25969ZM5.99281 14.1825L8.125 12.5647L10.2572 14.1825L9.45438 11.555L11.5866 10.0309H8.95906L8.125 7.25937L7.29094 10.0309H4.66344L6.79563 11.555L5.99281 14.1825Z" fill="#FFB931"/>
</svg>
