<svg width="22" height="22" viewBox="0 0 22 22" fill="none" xmlns="http://www.w3.org/2000/svg">
<path d="M8.20656 21.5144L5.35344 16.1731L0 13.3078L1.78594 11.5409L6.20906 12.2981L9.70906 8.79812L0.0671878 4.6875L2.2475 2.48094L13.9663 4.52156L17.8534 0.622499C18.2684 0.207499 18.78 0 19.3881 0C19.9963 0 20.5079 0.207499 20.9231 0.622499C21.3381 1.03771 21.5456 1.54615 21.5456 2.14781C21.5456 2.74969 21.3381 3.25812 20.9231 3.67312L17.0047 7.57937L19.0456 19.2787L16.8459 21.4784L12.7284 11.8366L9.22844 15.3366L9.99281 19.7284L8.20656 21.5144Z" fill="#FFB931"/>
</svg>
