<svg width="24" height="24" viewBox="0 0 24 24" fill="none" xmlns="http://www.w3.org/2000/svg">
<path d="M5.40875 18.3412L14.0384 14.0384L18.3412 5.40875L9.71156 9.71156L5.40875 18.3412ZM11.875 13.125C11.5208 13.125 11.224 13.0052 10.9844 12.7656C10.7448 12.526 10.625 12.2292 10.625 11.875C10.625 11.5208 10.7448 11.224 10.9844 10.9844C11.224 10.7448 11.5208 10.625 11.875 10.625C12.2292 10.625 12.526 10.7448 12.7656 10.9844C13.0052 11.224 13.125 11.5208 13.125 11.875C13.125 12.2292 13.0052 12.526 12.7656 12.7656C12.526 13.0052 12.2292 13.125 11.875 13.125ZM11.8772 23.75C10.2347 23.75 8.69083 23.4383 7.24562 22.815C5.80042 22.1917 4.54333 21.3457 3.47437 20.2772C2.40542 19.2086 1.55906 17.9521 0.935312 16.5075C0.311771 15.0629 0 13.5195 0 11.8772C0 10.2347 0.311667 8.69083 0.935 7.24562C1.55833 5.80042 2.40427 4.54333 3.47281 3.47437C4.54135 2.40542 5.79792 1.55906 7.2425 0.935312C8.68708 0.311771 10.2305 0 11.8728 0C13.5153 0 15.0592 0.311666 16.5044 0.934999C17.9496 1.55833 19.2067 2.40427 20.2756 3.47281C21.3446 4.54135 22.1909 5.79792 22.8147 7.2425C23.4382 8.68708 23.75 10.2305 23.75 11.8728C23.75 13.5153 23.4383 15.0592 22.815 16.5044C22.1917 17.9496 21.3457 19.2067 20.2772 20.2756C19.2086 21.3446 17.9521 22.1909 16.5075 22.8147C15.0629 23.4382 13.5195 23.75 11.8772 23.75ZM11.875 21.875C14.6667 21.875 17.0312 20.9062 18.9687 18.9687C20.9062 17.0312 21.875 14.6667 21.875 11.875C21.875 9.08333 20.9062 6.71875 18.9687 4.78125C17.0312 2.84375 14.6667 1.875 11.875 1.875C9.08333 1.875 6.71875 2.84375 4.78125 4.78125C2.84375 6.71875 1.875 9.08333 1.875 11.875C1.875 14.6667 2.84375 17.0312 4.78125 18.9687C6.71875 20.9062 9.08333 21.875 11.875 21.875Z" fill="#FFB931"/>
</svg>
