<svg width="460" height="472" viewBox="0 0 460 472" fill="none" xmlns="http://www.w3.org/2000/svg">
<path opacity="0.4" d="M436.284 440.158L423.084 445.7L417.924 448.06L417.199 445.407L386.026 303.851L432.245 214.085L426.511 109.195L359.156 0L357.009 19.3996L296.103 28.7359L293.241 48.1355L272.462 72.5573L300.406 105.607L320.469 94.9305L341.248 112.791L313.304 137.931L306.497 162.352L237.353 219.824L139.945 430.718C138.392 431.983 133.665 435.117 122.923 437.723C114.063 439.28 104.611 440.149 95.2049 440.149C57.4412 440.149 32.2653 423.44 32.2653 398.197C32.2653 372.954 57.4412 356.424 95.2049 356.424C111.323 356.424 130.511 362.022 146.526 370.848L159.086 344.812C142.713 335.08 118.479 328.868 94.8471 328.868C37.9426 328.868 0 356.603 0 398.197C0 439.79 37.9426 467.535 94.8471 467.535C114.139 467.535 133.571 464.363 148.758 459.124C148.758 459.124 148.805 459.114 148.88 459.086C151.761 458.085 154.501 457.018 157.043 455.876C167.898 451.751 187.001 445.029 199.241 443.727L249.866 471.981H332.407L332.445 472H359.664C356.661 458.784 348.338 447.899 335.966 440.149L322.766 445.69H272.914C272.914 445.69 279.099 434.9 283.27 427.291L286.933 420.164C286.952 420.088 286.97 420.032 286.97 419.994H287.008L337.689 321.354L397.296 471.981H432.743L432.781 472H460C456.997 458.784 448.674 447.899 436.302 440.149L436.284 440.158Z" fill="#10180E"/>
</svg>
